<svg width="620" height="224" viewBox="0 0 620 224" fill="none" xmlns="http://www.w3.org/2000/svg">
<path d="M73.4277 223.924H181.993C181.564 213.487 157.433 205.075 127.71 205.075C97.9877 205.075 73.8584 213.487 73.4277 223.924" fill="url(#paint0_linear_201_175)"/>
<path d="M95.4971 199.368C95.8957 205.693 110.648 210.481 128.68 210.089C146.71 209.697 161.24 204.273 161.364 197.936L95.4971 199.368Z" fill="url(#paint1_linear_201_175)"/>
<path d="M100.477 81.6726C138.462 95.0526 167.918 126.523 178.505 165.739C206.227 148.151 224.778 117.414 225.389 82.2979L102.089 82.2513L225.389 82.2979C225.391 82.2673 225.391 82.2366 225.391 82.2073L100.477 81.6726Z" fill="#FEAA01"/>
<path d="M233.925 24.1973C233.925 10.8333 223.093 -3.26935e-05 209.729 -3.26935e-05C196.365 -3.26935e-05 185.53 10.8333 185.53 24.1973C185.53 27.9693 186.394 31.5386 187.934 34.7213L164.85 73.0133H204.803L211.999 48.2853C224.295 47.1413 233.925 36.796 233.925 24.1973Z" fill="#808080"/>
<path d="M14.6051 81.6654C9.75039 81.7588 4.95573 82.1295 0.254395 82.7708C0.271728 87.6321 0.57573 92.4281 1.13973 97.1455C8.4664 158.199 60.4544 205.535 123.492 205.535C124.301 205.535 125.102 205.527 125.904 205.509C130.757 205.416 135.552 205.045 140.254 204.403C149.614 203.129 158.638 200.808 167.206 197.549C213.69 179.917 246.726 134.96 246.726 82.2988H232.376C232.376 127.448 204.902 166.175 165.754 182.676C157.44 186.179 148.594 188.687 139.366 190.028C134.682 190.72 129.897 191.108 125.042 191.176C124.528 191.185 124.005 191.185 123.492 191.185C67.9917 191.185 22.1917 149.672 15.465 95.9974C15.9797 95.9908 16.5024 95.9908 17.017 95.9908C20.0997 95.9908 23.1464 96.1148 26.1597 96.3774C73.1237 100.268 111.613 133.997 122.664 178.557C111.15 137.147 73.2424 106.752 28.1931 106.633C38.9984 149.073 77.4024 180.491 123.178 180.635H123.492C128.301 180.635 133.028 180.288 137.653 179.613C126.849 127.719 83.3971 87.7935 29.7557 82.2988C28.2264 82.1375 26.6997 82.0121 25.1637 81.9095C22.4704 81.7321 19.753 81.6401 17.017 81.6401C16.2077 81.6401 15.4064 81.6481 14.6051 81.6654" fill="url(#paint2_linear_201_175)"/>
<path d="M167.898 170.75C163.148 172.902 157.912 174.835 152.172 176.379H149.436C124.529 88.4941 61.0371 82.0701 55.9971 81.6901C129.262 85.6327 160.192 150.973 167.898 170.75Z" fill="#808080"/>
<path d="M279.294 176V124.023H310.46V129.607H285.588V147.169H308.125V152.753H285.588V176H279.294ZM333.403 176.812C329.884 176.812 326.796 175.975 324.139 174.3C321.5 172.625 319.436 170.281 317.947 167.27C316.475 164.258 315.739 160.739 315.739 156.712C315.739 152.651 316.475 149.106 317.947 146.078C319.436 143.049 321.5 140.697 324.139 139.022C326.796 137.347 329.884 136.51 333.403 136.51C336.922 136.51 340.001 137.347 342.641 139.022C345.297 140.697 347.362 143.049 348.834 146.078C350.322 149.106 351.067 152.651 351.067 156.712C351.067 160.739 350.322 164.258 348.834 167.27C347.362 170.281 345.297 172.625 342.641 174.3C340.001 175.975 336.922 176.812 333.403 176.812ZM333.403 171.432C336.076 171.432 338.276 170.746 340.001 169.376C341.727 168.006 343.005 166.204 343.834 163.97C344.663 161.737 345.077 159.317 345.077 156.712C345.077 154.106 344.663 151.678 343.834 149.428C343.005 147.178 341.727 145.359 340.001 143.971C338.276 142.584 336.076 141.89 333.403 141.89C330.73 141.89 328.53 142.584 326.804 143.971C325.078 145.359 323.801 147.178 322.972 149.428C322.143 151.678 321.728 154.106 321.728 156.712C321.728 159.317 322.143 161.737 322.972 163.97C323.801 166.204 325.078 168.006 326.804 169.376C328.53 170.746 330.73 171.432 333.403 171.432ZM376.047 176.812C372.527 176.812 369.439 175.975 366.783 174.3C364.144 172.625 362.079 170.281 360.59 167.27C359.118 164.258 358.382 160.739 358.382 156.712C358.382 152.651 359.118 149.106 360.59 146.078C362.079 143.049 364.144 140.697 366.783 139.022C369.439 137.347 372.527 136.51 376.047 136.51C379.566 136.51 382.645 137.347 385.285 139.022C387.941 140.697 390.005 143.049 391.477 146.078C392.966 149.106 393.711 152.651 393.711 156.712C393.711 160.739 392.966 164.258 391.477 167.27C390.005 170.281 387.941 172.625 385.285 174.3C382.645 175.975 379.566 176.812 376.047 176.812ZM376.047 171.432C378.72 171.432 380.919 170.746 382.645 169.376C384.371 168.006 385.648 166.204 386.477 163.97C387.306 161.737 387.721 159.317 387.721 156.712C387.721 154.106 387.306 151.678 386.477 149.428C385.648 147.178 384.371 145.359 382.645 143.971C380.919 142.584 378.72 141.89 376.047 141.89C373.373 141.89 371.174 142.584 369.448 143.971C367.722 145.359 366.445 147.178 365.616 149.428C364.787 151.678 364.372 154.106 364.372 156.712C364.372 159.317 364.787 161.737 365.616 163.97C366.445 166.204 367.722 168.006 369.448 169.376C371.174 170.746 373.373 171.432 376.047 171.432ZM417.573 176.812C414.325 176.812 411.457 175.992 408.97 174.35C406.483 172.692 404.537 170.357 403.133 167.346C401.728 164.317 401.026 160.739 401.026 156.61C401.026 152.516 401.728 148.963 403.133 145.951C404.537 142.939 406.491 140.613 408.995 138.972C411.499 137.33 414.393 136.51 417.675 136.51C420.213 136.51 422.218 136.933 423.69 137.779C425.179 138.608 426.312 139.555 427.091 140.621C427.886 141.67 428.504 142.533 428.943 143.21H429.451V124.023H435.441V176H429.654V170.01H428.943C428.504 170.721 427.878 171.618 427.065 172.701C426.253 173.767 425.094 174.723 423.588 175.569C422.083 176.398 420.078 176.812 417.573 176.812ZM418.386 171.432C420.788 171.432 422.819 170.806 424.477 169.554C426.135 168.285 427.395 166.534 428.258 164.3C429.121 162.05 429.553 159.453 429.553 156.509C429.553 153.598 429.13 151.052 428.284 148.869C427.438 146.67 426.186 144.961 424.527 143.743C422.869 142.508 420.822 141.89 418.386 141.89C415.848 141.89 413.733 142.542 412.041 143.844C410.366 145.13 409.105 146.881 408.259 149.098C407.43 151.297 407.016 153.768 407.016 156.509C407.016 159.283 407.439 161.804 408.285 164.072C409.148 166.322 410.417 168.115 412.092 169.452C413.784 170.772 415.882 171.432 418.386 171.432Z" fill="#D09844"/>
<path d="M454.472 124.023H466.781L478.633 146.408H479.141L490.993 124.023H503.302L484.344 157.625V176H473.43V157.625L454.472 124.023ZM518.701 176.761C514.691 176.761 511.239 175.949 508.346 174.325C505.47 172.684 503.253 170.366 501.697 167.371C500.14 164.359 499.362 160.798 499.362 156.686C499.362 152.676 500.14 149.157 501.697 146.128C503.253 143.1 505.444 140.74 508.27 139.048C511.112 137.356 514.446 136.51 518.269 136.51C520.841 136.51 523.235 136.924 525.452 137.753C527.685 138.565 529.631 139.792 531.289 141.433C532.964 143.075 534.267 145.139 535.197 147.626C536.128 150.096 536.593 152.989 536.593 156.306V159.275H503.676V152.575H526.416C526.416 151.018 526.078 149.639 525.401 148.438C524.724 147.237 523.785 146.298 522.584 145.621C521.399 144.927 520.021 144.58 518.447 144.58C516.806 144.58 515.351 144.961 514.082 145.722C512.83 146.467 511.848 147.474 511.138 148.743C510.427 149.995 510.063 151.39 510.046 152.93V159.3C510.046 161.229 510.402 162.896 511.112 164.3C511.84 165.704 512.864 166.787 514.183 167.549C515.503 168.31 517.068 168.691 518.878 168.691C520.08 168.691 521.18 168.522 522.178 168.183C523.176 167.845 524.03 167.337 524.741 166.66C525.452 165.984 525.993 165.155 526.365 164.173L536.365 164.833C535.857 167.236 534.817 169.334 533.243 171.127C531.687 172.904 529.673 174.291 527.203 175.289C524.75 176.271 521.916 176.761 518.701 176.761ZM554.765 176.736C552.278 176.736 550.061 176.305 548.115 175.442C546.17 174.562 544.63 173.267 543.496 171.559C542.38 169.833 541.821 167.684 541.821 165.112C541.821 162.947 542.219 161.128 543.014 159.656C543.809 158.184 544.892 156.999 546.263 156.103C547.633 155.206 549.19 154.529 550.933 154.072C552.692 153.615 554.536 153.294 556.465 153.108C558.733 152.871 560.56 152.651 561.947 152.448C563.335 152.228 564.341 151.907 564.967 151.484C565.593 151.061 565.906 150.435 565.906 149.605V149.453C565.906 147.846 565.399 146.602 564.384 145.722C563.385 144.843 561.964 144.403 560.12 144.403C558.174 144.403 556.626 144.834 555.475 145.697C554.325 146.543 553.564 147.609 553.191 148.895L543.192 148.083C543.699 145.714 544.698 143.667 546.187 141.941C547.676 140.198 549.596 138.862 551.948 137.931C554.317 136.983 557.057 136.51 560.171 136.51C562.336 136.51 564.409 136.764 566.389 137.271C568.385 137.779 570.153 138.565 571.693 139.631C573.249 140.697 574.476 142.068 575.373 143.743C576.27 145.401 576.718 147.389 576.718 149.707V176H566.465V170.594H566.16C565.534 171.812 564.697 172.887 563.648 173.817C562.599 174.731 561.338 175.45 559.866 175.975C558.394 176.482 556.694 176.736 554.765 176.736ZM557.861 169.274C559.452 169.274 560.856 168.961 562.074 168.335C563.292 167.692 564.248 166.83 564.942 165.747C565.636 164.664 565.983 163.437 565.983 162.067V157.93C565.644 158.15 565.179 158.353 564.587 158.539C564.011 158.708 563.36 158.869 562.632 159.021C561.905 159.157 561.177 159.283 560.45 159.402C559.722 159.503 559.062 159.596 558.47 159.681C557.201 159.867 556.093 160.163 555.146 160.569C554.198 160.975 553.462 161.525 552.938 162.219C552.413 162.896 552.151 163.742 552.151 164.757C552.151 166.229 552.684 167.354 553.75 168.132C554.833 168.894 556.203 169.274 557.861 169.274Z" fill="#029137"/>
<defs>
<linearGradient id="paint0_linear_201_175" x1="73.4283" y1="214.499" x2="181.992" y2="214.499" gradientUnits="userSpaceOnUse">
<stop stop-color="#079742"/>
<stop offset="0.0363617" stop-color="#079742"/>
<stop offset="1" stop-color="#CFDC25"/>
</linearGradient>
<linearGradient id="paint1_linear_201_175" x1="95.4973" y1="204.024" x2="161.363" y2="204.024" gradientUnits="userSpaceOnUse">
<stop stop-color="#079742"/>
<stop offset="0.0363617" stop-color="#079742"/>
<stop offset="1" stop-color="#CFDC25"/>
</linearGradient>
<linearGradient id="paint2_linear_201_175" x1="0.254448" y1="143.587" x2="246.726" y2="143.587" gradientUnits="userSpaceOnUse">
<stop stop-color="#079742"/>
<stop offset="0.0363617" stop-color="#079742"/>
<stop offset="1" stop-color="#CFDC25"/>
</linearGradient>
</defs>
</svg>
